<svg id="Layer_1" data-name="Layer 1" xmlns="http://www.w3.org/2000/svg" viewBox="0 0 38.95 28.35"><defs><style>.cls-1,.cls-2{fill:none;stroke:#231f20;stroke-miterlimit:10;}.cls-1{stroke-width:0.25px;}.cls-2{stroke-width:2px;}.cls-3{font-size:5.1px;fill:#231f20;font-family:Arial-ItalicMT, Arial;font-style:italic;}.cls-4{fill:#78c147;}.cls-5{fill:#97ca4a;}</style></defs><g id="Logo"><g id="Black_Rings" data-name="Black Rings"><ellipse class="cls-1" cx="13.82" cy="13.48" rx="13.69" ry="13.35"/><ellipse class="cls-1" cx="13.81" cy="13.29" rx="11.79" ry="11.67"/><ellipse class="cls-2" cx="15" cy="14.58" rx="12.8" ry="12.58"/></g><text class="cls-3" transform="translate(8.82 18.84)">Chef</text><text class="cls-3" transform="translate(7.19 14.64)">Pantry</text><g id="Leaf"><path class="cls-4" d="M27,23.57c-3.23,1.59-5,5.88-3.65,8s5.59,2.22,9.61-.36a15.69,15.69,0,0,0,6.74-8.58C36.6,22.19,31.28,21.49,27,23.57Z" transform="translate(-0.73 -4.8)"/><path class="cls-5" d="M21.94,25.82c-.64,2.53.77,6.41,2.7,6.66s3.83-2.35,4.27-5.78-.84-5.51-2.09-7.5A14.19,14.19,0,0,0,21.94,25.82Z" transform="translate(-0.73 -4.8)"/></g></g></svg>